<?xml version="1.0" encoding="UTF-8"?>
<svg id="Layer_1" xmlns="http://www.w3.org/2000/svg" xmlns:xlink="http://www.w3.org/1999/xlink" version="1.1" viewBox="0 0 435.92 323.86">
  <!-- Generator: Adobe Illustrator 30.2.0, SVG Export Plug-In . SVG Version: 2.1.1 Build 105)  -->
  <defs>
    <style>
      .st0 {
        fill: none;
      }

      .st1 {
        fill: url(#linear-gradient5);
      }

      .st1, .st2, .st3, .st4, .st5, .st6, .st7, .st8 {
        stroke: #010101;
        stroke-miterlimit: 10;
        stroke-width: 3px;
      }

      .st2 {
        fill: url(#linear-gradient4);
      }

      .st3 {
        fill: url(#linear-gradient3);
      }

      .st4 {
        fill: url(#linear-gradient1);
      }

      .st5 {
        fill: url(#linear-gradient2);
      }

      .st6 {
        fill: url(#linear-gradient);
      }

      .st7 {
        fill: #9e7ab7;
      }

      .st8 {
        fill: #fff;
      }
    </style>
    <linearGradient id="linear-gradient" x1="300.67" y1="213.62" x2="356.54" y2="213.62" gradientTransform="translate(0 325.86) scale(1 -1)" gradientUnits="userSpaceOnUse">
      <stop offset="0" stop-color="#67308f"/>
      <stop offset="1" stop-color="#a73d97"/>
    </linearGradient>
    <linearGradient id="linear-gradient1" x1="203.87" y1="117.01" x2="319.95" y2="117.01" xlink:href="#linear-gradient"/>
    <linearGradient id="linear-gradient2" x1="185.79" y1="170" x2="274" y2="170" xlink:href="#linear-gradient"/>
    <linearGradient id="linear-gradient3" x1="112.16" y1="172.72" x2="223.94" y2="172.72" xlink:href="#linear-gradient"/>
    <linearGradient id="linear-gradient4" x1="23.26" y1="211.91" x2="147.41" y2="211.91" xlink:href="#linear-gradient"/>
    <linearGradient id="linear-gradient5" x1="349.6" y1="157.39" x2="418.47" y2="157.39" xlink:href="#linear-gradient"/>
  </defs>
  <path class="st7" d="M1.66,52.73C4.3,37.15,85.14,7.93,91,11.88c5.86,3.95,11.48,71.89,20.04,75.19,8.57,3.3,40.41-10.64,70.9,1.31,10.21,4-.64,4.61,3.63,8.57s40.32-2.74,48.89,4.61,9.62,7.37,11.6,9.72,15.64-3.13,47.5-9.87c2.84-.6,6.05-67.48,9.25-76.3,3.27-9,44.3-27.02,53.52-23.07,9.22,3.95,6.03,102.29,11.21,99.22,10.4-6.16,42.08-4.09,52.23,5.52,10.14,9.61,11.28,12.1,13.92,22.14,2.64,10.04-2.27,37.06-8.84,41.84-6.57,4.78-36.63-.79-36.63,1.9s29.11.25,36.63,5.09c7.53,4.85,7.53,50.98-3.68,62.84-11.2,11.86-49.91-18.93-68.93-18.93-.94,0-67.86-4-71.38.77-5.63,7.62-7.8,101.79-15.21,99.88s-69.61-14.06-83.69-21.53c-14.08-7.47,32.78-82.53,16.02-84.57-15.92-1.94-52.5,25.16-67.42,0-9.5-16.01-17.6,8.77-38.02,8.77S-.96,68.31,1.68,52.73h-.01Z"/>
  <path class="st8" d="M11.07,53.68c-2.97-6.42,59.84-31.07,67.27-35.07,11.6-6.24,23.25,82.72,23.23,84.41-.05,5.52,3.83-1.67,7.7-5.15,3.9-3.51,64.21-7.46,67.62-2.01,3.44,5.5-2.51,26.08-2.51,26.08,0,0,4.94-10.99,8.49-13.27s44.67-2.26,49.69,0,2.73,8.97,2.73,8.97l19.84.87s10.05-7.7,20.56-7.57c11.21.14,24.92,4.33,24.41,4.22,2.15.07,13.38-90.16,15.12-91.89,3.68-3.67,23.61-12.92,31.5-13.68,8.48-.82,13.91,103.34,9.75,106.89,0,0,12.32-8.51,22.2-9.52,24.1-2.46,35.64,3.21,38.65,5.68,8.35,6.86,8.69,27.14,6.7,34.41-2.44,8.94-3.62,18.87-11.47,17.8-8.42-1.14-22.33-1.35-30.98-2.19-12.17-1.2-4.59,11.62,1.31,13.84,3.91,1.48,10.78,5.09,34.43,2.46,7.25-.81.26,36.95-2.61,51.22-2.36,11.68-46.45-5.16-54.3-17.18-4.24-6.48-1.16-3.4-5.02-1.9-18.56,7.25-64.33,7.61-63.16,1.68,2.95-14.93,4.68-13.64-.63-12.68l-13.9.84c-2.92-1.8-16.21,101.31-18.71,105.58-3.19,5.44-58.62-11.03-65.65-14.96-7.16-4,30.69-86.7,30.69-86.7l-28.35-2.45c-1.68-.66-8.62,9.37-20.82,11.61-12.34,2.26-28.77-3.8-33.51-8.9-6.75-7.26-5.86-11.62-5.86-11.62-.38.37-24.98,21.69-45.87,14.65-7.02-2.37-72.28-140.94-78.55-154.47h0Z"/>
  <path class="st6" d="M346.49,15.5l10.05,186.04c.09,1.63-1.13,3.03-2.75,3.16l-49.85,4.27c-1.91.17-3.48-1.47-3.24-3.37l22.22-177.52c.14-1.1.86-2.03,1.89-2.43l21.72-9.44"/>
  <path class="st4" d="M266.73,121.96l-62.66,162.36c-.66,1.7.34,3.6,2.13,4.02l43.22,10.08c1.67.39,3.32-.69,3.64-2.37l19.08-100.04c.3-1.59,1.8-2.65,3.39-2.41,10.26,1.53,44.86,3.67,44.42-36.94-.46-42.5-41.89-38.05-50.89-36.58-1.06.17-1.94.89-2.32,1.89h0Z"/>
  <path class="st5" d="M229.03,195.86c1.98-.13,3.29-2.11,2.64-3.98-2.19-6.27-5.85-19.53-3.3-32.19,3.34-16.51,5.91-16.02,17.71-17.83,7.97-1.23,15.18,2.25,19.03,4.63,1.57.97,3.63.32,4.36-1.38l4.29-10.12c.59-1.41.05-3.05-1.29-3.79-4.12-2.32-13.45-6.85-25.21-8.05-6.28-.65-10.94,0-14.27,1.01-2.45.75-4.64-1.75-3.61-4.1h0c.89-2.04-.65-4.3-2.86-4.22l-37.83,1.35c-2.29.08-3.66,2.6-2.47,4.57,4.74,7.84,14.33,24.36,17.07,34.12,2.8,9.96-4.41,29.19-8.06,37.92l33.81,2.07h-.01Z"/>
  <path class="st3" d="M143.68,192.97c5.07,8.07,14.19,10.06,15.4,10.29.1.02,0-.01.1.02,10.68,3.35,24.12-2.91,24.12-2.91,0,0,18.46-8.15,26.55-23.36,5.88-11.04,11.27-21.75,13.77-26.77.79-1.59.04-3.53-1.63-4.16l-37.18-14.07c-2.12-.81-4.34.94-4.05,3.19,1.12,8.74,3.04,26.49,1.2,32.84-.79,2.72-2.34,15.85-13.4,13-8.6-2.21-9.74-20.83-9.38-30.51.29-7.74,10.02-34.1,13.94-44.46.76-2.01-.77-4.14-2.92-4.07l-55.12,1.86c-2.02.07-3.4,2.07-2.75,3.98,5.49,16.1,26.62,77.62,31.35,85.13h0Z"/>
  <path class="st0" d="M95.66,139.43l5.09,26.75c.27,1.42,1.51,2.44,2.96,2.44h8.02c.53,0,1.05-.14,1.51-.4l12.14-7.02c.93-.54,1.5-1.53,1.5-2.6v-16.64c0-.8-.32-1.57-.88-2.13l-9.07-9.07c-.83-.83-2.07-1.1-3.17-.69l-16.18,5.99c-1.38.51-2.19,1.94-1.91,3.38h-.01Z"/>
  <path class="st2" d="M147.36,146.9c1.81,50.36-46.39,57.34-53.44,51.71-.31-.25-.55-.57-.73-.93L23.58,57.89c-.74-1.49-.14-3.29,1.35-4.03l51.66-25.86c1.81-.91,3.98.19,4.31,2.19l14.43,84.66c.32,1.86,2.25,2.98,4.02,2.31,11.2-4.21,46.44-13.92,48.01,29.75h0Z"/>
  <path class="st8" d="M98.86,140.25l6.24,32.77c.35,1.83,2.25,2.9,4,2.26,5.25-1.91,14.77-7.33,14.77-21.53,0-14.95-14.9-16.96-22-17.07-1.91-.03-3.37,1.7-3.01,3.57h0Z"/>
  <path class="st8" d="M275.27,165.77c1.94-10.77,3.48-16.03,4.47-18.59.56-1.43,2.11-2.2,3.59-1.8,6.03,1.63,21.59,6.85,19.49,17.17-2.05,10.09-18.42,8.02-25.16,6.71-1.62-.31-2.68-1.86-2.39-3.49h0Z"/>
  <path class="st1" d="M412.74,188.85c.19-2.03-1.66-3.65-3.65-3.2-5.4,1.2-15.78,2.19-28.54-3.09-14.25-5.89-15.53-19.09-15.29-25.23.07-1.76,1.64-3.09,3.39-2.85,8.81,1.14,36.14,1.22,43.72,2,1.3.13.4,2.58.93,1.39,1.61-3.59,4.79-11.68,5.14-20.11.47-11.33-4.2-23.28-24.7-25.75s-32.09,7.31-38.95,20.85-5.28,31.94-4.3,41.42,10.76,33.32,27.8,41.98c12.22,6.2,22.91,8.34,27.99,9.05,1.7.24,3.26-1,3.41-2.71l3.04-33.74h0Z"/>
  <path class="st8" d="M376.51,143.51c10.68.56,20.15,1.65,25.33,2.31,2.23.28,4.2-1.15,3.88-2.83-.78-4.16-3.59-10.87-13.56-12.77-10.41-2-16.06,5.37-18.48,9.86-.85,1.59.57,3.32,2.82,3.44Z"/>
</svg>