<?xml version="1.0" encoding="UTF-8"?>
<svg id="Layer_1" xmlns="http://www.w3.org/2000/svg" version="1.1" viewBox="0 0 71.7 59.7">
  <!-- Generator: Adobe Illustrator 30.2.0, SVG Export Plug-In . SVG Version: 2.1.1 Build 105)  -->
  <defs>
    <style>
      .st0 {
        fill: #fff;
      }
    </style>
  </defs>
  <path d="M29.09,48.81c2.76,2.39,2.03,7.07-.45,9.3-2.62,2.35-6.91,2.05-9.2-.63-1.98-2.33-2.25-6.7.24-8.75"/>
  <path d="M58.57,48.74c2.8,2.34,2.15,7.03-.3,9.31-2.58,2.4-6.88,2.16-9.2-.49-2.02-2.3-2.36-6.67.1-8.75"/>
  <path d="M0,0l11.2.13,2.74,11.52,51.38.14-6.66,28.55,13.01,5.49c.74.64-11.75,0-12.83,0l-43.62-.05L7.77,4.93l-6.09-.86M53.78,41.03l6.11-24.92-45.45-.02,4.32,24.84,35.02.1Z"/>
  <polygon class="st0" points="53.78 41.03 18.76 40.94 14.44 16.1 59.89 16.11 53.78 41.03"/>
</svg>